<?xml version="1.0" encoding="utf-8"?>
<!-- Generator: Adobe Illustrator 18.1.1, SVG Export Plug-In . SVG Version: 6.00 Build 0)  -->
<svg version="1.1" id="Layer_1" xmlns="http://www.w3.org/2000/svg" xmlns:xlink="http://www.w3.org/1999/xlink" x="0px" y="0px"
	 viewBox="32 -232 1024 1024" enable-background="new 32 -232 1024 1024" xml:space="preserve">
<path fill="#FFFFFF" d="M544-219.4c-282.7,0-512,229.3-512,512c0,226.3,146.7,418.1,350.2,485.8c25.6,4.7,34.9-11.1,34.9-24.6
	c0-12.2-0.5-52.6-0.7-95.3C287.7,682,254.7,627,243.9,598.1c-5.5-14.8-30.4-60.2-52.4-72.3c-18-9.8-43.3-33.2-0.9-33.7
	c40.4-0.5,69.3,37.3,78.5,52.8c45.9,77.7,119.9,55.6,149,42.5c4.7-33,17.9-55.6,32.5-68.4c-113.7-12.9-233.2-56.9-233.2-253.1
	c0-55.9,20-101.6,52.7-137.4c-5.2-13-22.8-65.1,5.1-135.6c0,0,42.9-13.7,140.8,52.5c40.8-11.4,84.6-17,128.1-17.2
	c43.5,0.2,87.3,5.9,128.2,17.3C769.9-20.8,812.9-7,812.9-7c28,70.5,10.4,122.6,5.1,135.5c32.8,35.8,52.6,81.5,52.6,137.4
	c0,196.7-119.8,240-233.8,252.7c18.4,15.9,34.7,47,34.7,94.7c0,68.4-0.7,123.6-0.7,140.5c0,13.6,9.3,29.6,35.2,24.6
	C909.4,710.6,1056,518.8,1056,292.6C1056,9.9,826.7-219.4,544-219.4z"/>
</svg>
