<?xml version="1.0" encoding="utf-8"?>
<!-- Generator: Adobe Illustrator 18.1.1, SVG Export Plug-In . SVG Version: 6.00 Build 0)  -->
<svg version="1.1" id="Layer_1" xmlns="http://www.w3.org/2000/svg" xmlns:xlink="http://www.w3.org/1999/xlink" x="0px" y="0px"
	 viewBox="230 30 500 500" enable-background="new 230 30 500 500" xml:space="preserve">
<path fill="#FFFFFF" d="M729.9,124.8c-18.5,8.2-38.2,13.7-58.9,16.1c21.2-12.6,37.5-32.7,45.2-56.7c-19.8,11.7-41.7,20.3-65.1,24.9
	c-18.7-19.9-45.4-32.4-74.8-32.4c-56.7,0-102.6,45.9-102.6,102.6c0,8,0.9,15.9,2.7,23.4c-85.2-4.2-160.8-45.2-211.4-107.2
	c-8.8,15.2-13.9,32.7-13.9,51.6c0,35.7,18.1,66.9,45.7,85.4c-16.8-0.5-32.6-5.1-46.5-12.8c0,0.4,0,0.9,0,1.3
	c0,49.8,35.3,91.1,82.3,100.6c-8.6,2.4-17.7,3.7-27.1,3.7c-6.6,0-13-0.7-19.4-1.8c13,40.8,51,70.4,95.8,71.3
	c-35.1,27.4-79.4,43.9-127.5,43.9c-8.2,0-16.5-0.5-24.5-1.5c45.4,29.1,99.3,46.1,157.3,46.1c188.8,0,291.9-156.4,291.9-291.9
	c0-4.4-0.2-9-0.4-13.4C698.9,163.6,716.2,145.5,729.9,124.8z"/>
</svg>
